<svg width="6035" height="6035" viewBox="0 0 6035 6035" fill="none" xmlns="http://www.w3.org/2000/svg">
<path d="M0 811.156C0 363.167 363.167 0 811.156 0H5223.84C5671.83 0 6035 363.167 6035 811.156V5223.84C6035 5671.83 5671.83 6035 5223.84 6035H811.156C363.167 6035 0 5671.83 0 5223.84V811.156Z" fill="black"/>
<path d="M2612 1801C2612 2248.9 2248.9 2612 1801 2612C1353.1 2612 990 2248.9 990 1801C990 1353.1 1353.1 990 1801 990C2248.9 990 2612 1353.1 2612 1801Z" fill="#DC1464"/>
<path d="M2612 4234C2612 4681.9 2248.9 5045 1801 5045C1353.1 5045 990 4681.9 990 4234C990 3786.1 1353.1 3423 1801 3423C2248.9 3423 2612 3786.1 2612 4234Z" fill="#FAA019"/>
<path d="M5045 1801C5045 2248.9 4681.9 2612 4234 2612C3786.1 2612 3423 2248.9 3423 1801C3423 1353.1 3786.1 990 4234 990C4681.9 990 5045 1353.1 5045 1801Z" fill="#0046AA"/>
<path d="M5045 4234C5045 4681.9 4681.9 5045 4234 5045C3786.1 5045 3423 4681.9 3423 4234C3423 3786.1 3786.1 3423 4234 3423C4681.9 3423 5045 3786.1 5045 4234Z" fill="#00A064"/>
</svg>
